<mxfile host="app.diagrams.net" modified="2022-11-04T07:35:10.580Z" agent="5.0 (Macintosh; Intel Mac OS X 10_15_7) AppleWebKit/537.36 (KHTML, like Gecko) Chrome/107.0.0.0 Safari/537.36" etag="sHXoj0tm4FXAZDRAddnJ" version="20.5.1" type="github">
  <diagram id="yQsCM6jZWIF5iwXcTcKw" name="第 1 页">
    <mxGraphModel dx="946" dy="614" grid="1" gridSize="10" guides="1" tooltips="1" connect="1" arrows="1" fold="1" page="1" pageScale="1" pageWidth="850" pageHeight="1100" math="0" shadow="0">
      <root>
        <mxCell id="0" />
        <mxCell id="1" parent="0" />
        <mxCell id="FIL8WxFehlJEDxuM4I_O-17" value="" style="rounded=0;whiteSpace=wrap;html=1;fontColor=#000100;" vertex="1" parent="1">
          <mxGeometry x="60" width="640" height="590" as="geometry" />
        </mxCell>
        <mxCell id="FIL8WxFehlJEDxuM4I_O-1" value="概念" style="swimlane;childLayout=stackLayout;horizontal=1;startSize=30;horizontalStack=0;rounded=1;fontSize=14;fontStyle=0;strokeWidth=2;resizeParent=0;resizeLast=1;shadow=0;dashed=0;align=center;" vertex="1" parent="1">
          <mxGeometry x="130" y="120" width="160" height="110" as="geometry" />
        </mxCell>
        <mxCell id="FIL8WxFehlJEDxuM4I_O-2" value="+id&#xa;+mapping_id 模板id&#xa;+concept_id 概念id&#xa;+source_id 数据库源id" style="align=left;strokeColor=none;fillColor=none;spacingLeft=4;fontSize=12;verticalAlign=top;resizable=0;rotatable=0;part=1;" vertex="1" parent="FIL8WxFehlJEDxuM4I_O-1">
          <mxGeometry y="30" width="160" height="80" as="geometry" />
        </mxCell>
        <mxCell id="FIL8WxFehlJEDxuM4I_O-3" value="概念属性" style="swimlane;childLayout=stackLayout;horizontal=1;startSize=30;horizontalStack=0;rounded=1;fontSize=14;fontStyle=0;strokeWidth=2;resizeParent=0;resizeLast=1;shadow=0;dashed=0;align=center;" vertex="1" parent="1">
          <mxGeometry x="130" y="320" width="160" height="90" as="geometry" />
        </mxCell>
        <mxCell id="FIL8WxFehlJEDxuM4I_O-4" value="+id&#xa;+mapping_concept_id 概念&#xa;+attribute_id 属性id&#xa;" style="align=left;strokeColor=none;fillColor=none;spacingLeft=4;fontSize=12;verticalAlign=top;resizable=0;rotatable=0;part=1;" vertex="1" parent="FIL8WxFehlJEDxuM4I_O-3">
          <mxGeometry y="30" width="160" height="60" as="geometry" />
        </mxCell>
        <mxCell id="FIL8WxFehlJEDxuM4I_O-5" style="edgeStyle=orthogonalEdgeStyle;rounded=0;orthogonalLoop=1;jettySize=auto;html=1;exitX=0.5;exitY=1;exitDx=0;exitDy=0;entryX=0.5;entryY=0;entryDx=0;entryDy=0;" edge="1" parent="1" source="FIL8WxFehlJEDxuM4I_O-2" target="FIL8WxFehlJEDxuM4I_O-3">
          <mxGeometry relative="1" as="geometry" />
        </mxCell>
        <mxCell id="FIL8WxFehlJEDxuM4I_O-10" style="edgeStyle=orthogonalEdgeStyle;rounded=0;orthogonalLoop=1;jettySize=auto;html=1;exitX=0.5;exitY=1;exitDx=0;exitDy=0;exitPerimeter=0;" edge="1" parent="1" source="FIL8WxFehlJEDxuM4I_O-6" target="FIL8WxFehlJEDxuM4I_O-7">
          <mxGeometry relative="1" as="geometry" />
        </mxCell>
        <mxCell id="FIL8WxFehlJEDxuM4I_O-6" value="业务DB" style="strokeWidth=2;html=1;shape=mxgraph.flowchart.database;whiteSpace=wrap;" vertex="1" parent="1">
          <mxGeometry x="505" y="20" width="60" height="60" as="geometry" />
        </mxCell>
        <mxCell id="FIL8WxFehlJEDxuM4I_O-14" value="&lt;font color=&quot;#000100&quot;&gt;&lt;span style=&quot;font-family: &amp;quot;courier new&amp;quot;; font-size: 13.2px; font-style: normal; font-variant-ligatures: normal; font-variant-caps: normal; font-weight: 400; letter-spacing: normal; orphans: 2; text-align: start; text-indent: 0px; text-transform: none; widows: 2; word-spacing: 0px; -webkit-text-stroke-width: 0px; background-color: rgb(246, 244, 240); text-decoration-thickness: initial; text-decoration-style: initial; text-decoration-color: initial; float: none; display: inline !important;&quot;&gt;SELECT&amp;nbsp;&lt;/span&gt;&lt;em style=&quot;border: 0px; margin: 0px; padding: 0px; font-family: &amp;quot;courier new&amp;quot;; font-size: 13.2px; font-variant-ligatures: normal; font-variant-caps: normal; font-weight: 400; letter-spacing: normal; orphans: 2; text-align: start; text-indent: 0px; text-transform: none; widows: 2; word-spacing: 0px; -webkit-text-stroke-width: 0px; background-color: rgb(246, 244, 240); text-decoration-thickness: initial; text-decoration-style: initial; text-decoration-color: initial;&quot;&gt;column_name&lt;/em&gt;&lt;span style=&quot;font-family: &amp;quot;courier new&amp;quot;; font-size: 13.2px; font-style: normal; font-variant-ligatures: normal; font-variant-caps: normal; font-weight: 400; letter-spacing: normal; orphans: 2; text-align: start; text-indent: 0px; text-transform: none; widows: 2; word-spacing: 0px; -webkit-text-stroke-width: 0px; background-color: rgb(246, 244, 240); text-decoration-thickness: initial; text-decoration-style: initial; text-decoration-color: initial; float: none; display: inline !important;&quot;&gt;,&lt;/span&gt;&lt;em style=&quot;border: 0px; margin: 0px; padding: 0px; font-family: &amp;quot;courier new&amp;quot;; font-size: 13.2px; font-variant-ligatures: normal; font-variant-caps: normal; font-weight: 400; letter-spacing: normal; orphans: 2; text-align: start; text-indent: 0px; text-transform: none; widows: 2; word-spacing: 0px; -webkit-text-stroke-width: 0px; background-color: rgb(246, 244, 240); text-decoration-thickness: initial; text-decoration-style: initial; text-decoration-color: initial;&quot;&gt;column_name&lt;/em&gt;&lt;br style=&quot;font-family: &amp;quot;courier new&amp;quot;; font-size: 13.2px; font-style: normal; font-variant-ligatures: normal; font-variant-caps: normal; font-weight: 400; letter-spacing: normal; orphans: 2; text-align: start; text-indent: 0px; text-transform: none; widows: 2; word-spacing: 0px; -webkit-text-stroke-width: 0px; background-color: rgb(246, 244, 240); text-decoration-thickness: initial; text-decoration-style: initial; text-decoration-color: initial;&quot;&gt;&lt;span style=&quot;font-family: &amp;quot;courier new&amp;quot;; font-size: 13.2px; font-style: normal; font-variant-ligatures: normal; font-variant-caps: normal; font-weight: 400; letter-spacing: normal; orphans: 2; text-align: start; text-indent: 0px; text-transform: none; widows: 2; word-spacing: 0px; -webkit-text-stroke-width: 0px; background-color: rgb(246, 244, 240); text-decoration-thickness: initial; text-decoration-style: initial; text-decoration-color: initial; float: none; display: inline !important;&quot;&gt;FROM&lt;span&gt;&amp;nbsp;&lt;/span&gt;&lt;/span&gt;&lt;em style=&quot;border: 0px; margin: 0px; padding: 0px; font-family: &amp;quot;courier new&amp;quot;; font-size: 13.2px; font-variant-ligatures: normal; font-variant-caps: normal; font-weight: 400; letter-spacing: normal; orphans: 2; text-align: start; text-indent: 0px; text-transform: none; widows: 2; word-spacing: 0px; -webkit-text-stroke-width: 0px; background-color: rgb(246, 244, 240); text-decoration-thickness: initial; text-decoration-style: initial; text-decoration-color: initial;&quot;&gt;table_name&lt;/em&gt;&lt;span style=&quot;font-family: &amp;quot;courier new&amp;quot;; font-size: 13.2px; font-style: normal; font-variant-ligatures: normal; font-variant-caps: normal; font-weight: 400; letter-spacing: normal; orphans: 2; text-align: start; text-indent: 0px; text-transform: none; widows: 2; word-spacing: 0px; -webkit-text-stroke-width: 0px; background-color: rgb(246, 244, 240); text-decoration-thickness: initial; text-decoration-style: initial; text-decoration-color: initial; float: none; display: inline !important;&quot;&gt;;&lt;/span&gt;&lt;/font&gt;" style="edgeStyle=orthogonalEdgeStyle;rounded=0;orthogonalLoop=1;jettySize=auto;html=1;exitX=0.5;exitY=1;exitDx=0;exitDy=0;entryX=0.5;entryY=0;entryDx=0;entryDy=0;" edge="1" parent="1" source="FIL8WxFehlJEDxuM4I_O-7" target="FIL8WxFehlJEDxuM4I_O-11">
          <mxGeometry relative="1" as="geometry" />
        </mxCell>
        <mxCell id="FIL8WxFehlJEDxuM4I_O-7" value="链接数据库" style="rounded=1;whiteSpace=wrap;html=1;" vertex="1" parent="1">
          <mxGeometry x="460" y="120" width="150" height="60" as="geometry" />
        </mxCell>
        <mxCell id="FIL8WxFehlJEDxuM4I_O-8" style="edgeStyle=orthogonalEdgeStyle;rounded=0;orthogonalLoop=1;jettySize=auto;html=1;exitX=1;exitY=0.75;exitDx=0;exitDy=0;entryX=0;entryY=0.5;entryDx=0;entryDy=0;" edge="1" parent="1" source="FIL8WxFehlJEDxuM4I_O-2" target="FIL8WxFehlJEDxuM4I_O-7">
          <mxGeometry relative="1" as="geometry" />
        </mxCell>
        <mxCell id="FIL8WxFehlJEDxuM4I_O-9" value="ip port user password" style="edgeLabel;html=1;align=center;verticalAlign=middle;resizable=0;points=[];" vertex="1" connectable="0" parent="FIL8WxFehlJEDxuM4I_O-8">
          <mxGeometry x="-0.4435" y="2" relative="1" as="geometry">
            <mxPoint x="16" y="-28" as="offset" />
          </mxGeometry>
        </mxCell>
        <mxCell id="FIL8WxFehlJEDxuM4I_O-16" style="edgeStyle=orthogonalEdgeStyle;rounded=0;orthogonalLoop=1;jettySize=auto;html=1;entryX=0.5;entryY=0;entryDx=0;entryDy=0;entryPerimeter=0;" edge="1" parent="1" source="FIL8WxFehlJEDxuM4I_O-11" target="FIL8WxFehlJEDxuM4I_O-15">
          <mxGeometry relative="1" as="geometry" />
        </mxCell>
        <mxCell id="FIL8WxFehlJEDxuM4I_O-11" value="利用概念属性里的字段组装selec语句查询业务DB" style="rounded=1;whiteSpace=wrap;html=1;" vertex="1" parent="1">
          <mxGeometry x="460" y="320" width="150" height="90" as="geometry" />
        </mxCell>
        <mxCell id="FIL8WxFehlJEDxuM4I_O-13" style="edgeStyle=orthogonalEdgeStyle;rounded=0;orthogonalLoop=1;jettySize=auto;html=1;exitX=1;exitY=0.25;exitDx=0;exitDy=0;" edge="1" parent="1" source="FIL8WxFehlJEDxuM4I_O-4" target="FIL8WxFehlJEDxuM4I_O-11">
          <mxGeometry relative="1" as="geometry" />
        </mxCell>
        <mxCell id="FIL8WxFehlJEDxuM4I_O-15" value="ES" style="outlineConnect=0;dashed=0;verticalLabelPosition=bottom;verticalAlign=top;align=center;html=1;shape=mxgraph.aws3.elasticsearch_service;fillColor=#F58534;gradientColor=none;" vertex="1" parent="1">
          <mxGeometry x="501.25" y="480" width="67.5" height="81" as="geometry" />
        </mxCell>
      </root>
    </mxGraphModel>
  </diagram>
</mxfile>
